HIERARCHY
ROOT Hips
{
	OFFSET -36.480297 -30.199697 87.527466
	CHANNELS 6 Xposition Yposition Zposition Zrotation Yrotation Xrotation
	JOINT Spine
	{
		OFFSET 0.000000 2.080109 8.814247
		CHANNELS 6 Xposition Yposition Zposition Zrotation Yrotation Xrotation
		JOINT Spine1
		{
			OFFSET 0.000000 0.000000 8.844139
			CHANNELS 6 Xposition Yposition Zposition Zrotation Yrotation Xrotation
			JOINT Spine2
			{
				OFFSET 0.000000 0.000002 11.682266
				CHANNELS 6 Xposition Yposition Zposition Zrotation Yrotation Xrotation
				JOINT Spine3
				{
					OFFSET 0.000000 0.000000 11.746704
					CHANNELS 6 Xposition Yposition Zposition Zrotation Yrotation Xrotation
					JOINT Neck
					{
						OFFSET 0.000000 0.000002 17.658264
						CHANNELS 6 Xposition Yposition Zposition Zrotation Yrotation Xrotation
						JOINT Neck1
						{
							OFFSET 0.000000 0.000000 5.101517
							CHANNELS 6 Xposition Yposition Zposition Zrotation Yrotation Xrotation
							JOINT Head
							{
								OFFSET 0.000000 0.000000 5.101517
								CHANNELS 6 Xposition Yposition Zposition Zrotation Yrotation Xrotation
								JOINT HeadEnd
								{
									OFFSET 0.000000 0.000002 11.655090
									CHANNELS 6 Xposition Yposition Zposition Zrotation Yrotation Xrotation
									End Site
									{
										OFFSET 0.000000 0.000000 0.100006
									}
								}
							}
						}
					}
					JOINT RightShoulder
					{
						OFFSET -2.625389 0.000002 11.175217
						CHANNELS 6 Xposition Yposition Zposition Zrotation Yrotation Xrotation
						JOINT RightArm
						{
							OFFSET 0.000000 0.000000 10.434723
							CHANNELS 6 Xposition Yposition Zposition Zrotation Yrotation Xrotation
							JOINT RightForeArm
							{
								OFFSET 0.000000 0.000002 29.628418
								CHANNELS 6 Xposition Yposition Zposition Zrotation Yrotation Xrotation
								JOINT RightHand
								{
									OFFSET 0.000000 0.000002 22.857605
									CHANNELS 6 Xposition Yposition Zposition Zrotation Yrotation Xrotation
									JOINT RightHandThumb1
									{
										OFFSET -2.867321 -2.944292 3.959564
										CHANNELS 6 Xposition Yposition Zposition Zrotation Yrotation Xrotation
										JOINT RightHandThumb2
										{
											OFFSET 0.000000 0.000000 3.350403
											CHANNELS 6 Xposition Yposition Zposition Zrotation Yrotation Xrotation
											JOINT RightHandThumb3
											{
												OFFSET 0.000000 0.000000 3.756516
												CHANNELS 6 Xposition Yposition Zposition Zrotation Yrotation Xrotation
												JOINT RightHandThumb4
												{
													OFFSET 0.000000 0.000002 3.147339
													CHANNELS 6 Xposition Yposition Zposition Zrotation Yrotation Xrotation
													End Site
													{
														OFFSET 0.000000 0.000000 0.100006
													}
												}
											}
										}
									}
									JOINT RightHandIndex1
									{
										OFFSET -0.086754 -2.345280 10.030899
										CHANNELS 6 Xposition Yposition Zposition Zrotation Yrotation Xrotation
										JOINT RightHandIndex2
										{
											OFFSET 0.000000 0.000002 4.061096
											CHANNELS 6 Xposition Yposition Zposition Zrotation Yrotation Xrotation
											JOINT RightHandIndex3
											{
												OFFSET 0.000000 0.000000 3.248871
												CHANNELS 6 Xposition Yposition Zposition Zrotation Yrotation Xrotation
												JOINT RightHandIndex4
												{
													OFFSET 0.000000 0.000000 2.639709
													CHANNELS 6 Xposition Yposition Zposition Zrotation Yrotation Xrotation
													End Site
													{
														OFFSET 0.000000 0.000000 0.100006
													}
												}
											}
										}
									}
									JOINT RightHandMiddle1
									{
										OFFSET 0.104103 -0.006767 9.502945
										CHANNELS 6 Xposition Yposition Zposition Zrotation Yrotation Xrotation
										JOINT RightHandMiddle2
										{
											OFFSET 0.000000 0.000002 4.568726
											CHANNELS 6 Xposition Yposition Zposition Zrotation Yrotation Xrotation
											JOINT RightHandMiddle3
											{
												OFFSET 0.000000 0.000000 3.654984
												CHANNELS 6 Xposition Yposition Zposition Zrotation Yrotation Xrotation
												JOINT RightHandMiddle4
												{
													OFFSET 0.000000 0.000000 2.741241
													CHANNELS 6 Xposition Yposition Zposition Zrotation Yrotation Xrotation
													End Site
													{
														OFFSET 0.000000 0.000000 0.100006
													}
												}
											}
										}
									}
									JOINT RightHandRing1
									{
										OFFSET 0.086754 2.267443 8.921707
										CHANNELS 6 Xposition Yposition Zposition Zrotation Yrotation Xrotation
										JOINT RightHandRing2
										{
											OFFSET 0.000000 0.000002 4.061096
											CHANNELS 6 Xposition Yposition Zposition Zrotation Yrotation Xrotation
											JOINT RightHandRing3
											{
												OFFSET 0.000000 0.000000 3.654984
												CHANNELS 6 Xposition Yposition Zposition Zrotation Yrotation Xrotation
												JOINT RightHandRing4
												{
													OFFSET 0.000000 0.000000 2.741241
													CHANNELS 6 Xposition Yposition Zposition Zrotation Yrotation Xrotation
													End Site
													{
														OFFSET 0.000000 0.000000 0.100006
													}
												}
											}
										}
									}
									JOINT RightHandPinky1
									{
										OFFSET -0.173504 4.467199 7.976990
										CHANNELS 6 Xposition Yposition Zposition Zrotation Yrotation Xrotation
										JOINT RightHandPinky2
										{
											OFFSET 0.000000 0.000000 3.350403
											CHANNELS 6 Xposition Yposition Zposition Zrotation Yrotation Xrotation
											JOINT RightHandPinky3
											{
												OFFSET 0.000000 0.000002 2.842758
												CHANNELS 6 Xposition Yposition Zposition Zrotation Yrotation Xrotation
												JOINT RightHandPinky4
												{
													OFFSET 0.000000 0.000000 2.639709
													CHANNELS 6 Xposition Yposition Zposition Zrotation Yrotation Xrotation
													End Site
													{
														OFFSET 0.000000 0.000000 0.100006
													}
												}
											}
										}
									}
									JOINT RightForeArmEnd
									{
										OFFSET 0.000000 0.000000 0.000000
										CHANNELS 6 Xposition Yposition Zposition Zrotation Yrotation Xrotation
										End Site
										{
											OFFSET 0.000000 0.000000 0.100006
										}
									}
								}
								JOINT RightArmEnd
								{
									OFFSET 0.000000 0.000000 0.000000
									CHANNELS 6 Xposition Yposition Zposition Zrotation Yrotation Xrotation
									End Site
									{
										OFFSET 0.000000 0.000000 0.100006
									}
								}
							}
						}
					}
					JOINT LeftShoulder
					{
						OFFSET 2.625389 0.000002 11.175217
						CHANNELS 6 Xposition Yposition Zposition Zrotation Yrotation Xrotation
						JOINT LeftArm
						{
							OFFSET 0.000000 0.000000 10.813629
							CHANNELS 6 Xposition Yposition Zposition Zrotation Yrotation Xrotation
							JOINT LeftForeArm
							{
								OFFSET 0.000000 0.000002 28.724777
								CHANNELS 6 Xposition Yposition Zposition Zrotation Yrotation Xrotation
								JOINT LeftHand
								{
									OFFSET 0.644382 0.328873 25.716171
									CHANNELS 6 Xposition Yposition Zposition Zrotation Yrotation Xrotation
									JOINT LeftHandThumb1
									{
										OFFSET 2.867323 -2.944290 3.959564
										CHANNELS 6 Xposition Yposition Zposition Zrotation Yrotation Xrotation
										JOINT LeftHandThumb2
										{
											OFFSET 0.000000 0.000000 3.350403
											CHANNELS 6 Xposition Yposition Zposition Zrotation Yrotation Xrotation
											JOINT LeftHandThumb3
											{
												OFFSET 0.000000 0.000002 3.756516
												CHANNELS 6 Xposition Yposition Zposition Zrotation Yrotation Xrotation
												JOINT LeftHandThumb4
												{
													OFFSET 0.000000 0.000000 3.100006
													CHANNELS 6 Xposition Yposition Zposition Zrotation Yrotation Xrotation
													End Site
													{
														OFFSET 0.000000 0.000000 0.100006
													}
												}
											}
										}
									}
									JOINT LeftHandIndex1
									{
										OFFSET 0.086754 -2.345278 10.030899
										CHANNELS 6 Xposition Yposition Zposition Zrotation Yrotation Xrotation
										JOINT LeftHandIndex2
										{
											OFFSET 0.000000 0.000000 4.061096
											CHANNELS 6 Xposition Yposition Zposition Zrotation Yrotation Xrotation
											JOINT LeftHandIndex3
											{
												OFFSET 0.000000 0.000000 3.248871
												CHANNELS 6 Xposition Yposition Zposition Zrotation Yrotation Xrotation
												JOINT LeftHandIndex4
												{
													OFFSET 0.000000 0.000000 2.639709
													CHANNELS 6 Xposition Yposition Zposition Zrotation Yrotation Xrotation
													End Site
													{
														OFFSET 0.000000 0.000000 0.100006
													}
												}
											}
										}
									}
									JOINT LeftHandMiddle1
									{
										OFFSET -0.104103 -0.006767 9.502945
										CHANNELS 6 Xposition Yposition Zposition Zrotation Yrotation Xrotation
										JOINT LeftHandMiddle2
										{
											OFFSET 0.000000 0.000002 4.568726
											CHANNELS 6 Xposition Yposition Zposition Zrotation Yrotation Xrotation
											JOINT LeftHandMiddle3
											{
												OFFSET 0.000000 0.000000 3.654984
												CHANNELS 6 Xposition Yposition Zposition Zrotation Yrotation Xrotation
												JOINT LeftHandMiddle4
												{
													OFFSET 0.000000 0.000000 2.741241
													CHANNELS 6 Xposition Yposition Zposition Zrotation Yrotation Xrotation
													End Site
													{
														OFFSET 0.000000 0.000000 0.100006
													}
												}
											}
										}
									}
									JOINT LeftHandRing1
									{
										OFFSET -0.086754 2.267443 8.921707
										CHANNELS 6 Xposition Yposition Zposition Zrotation Yrotation Xrotation
										JOINT LeftHandRing2
										{
											OFFSET 0.000000 0.000002 4.061096
											CHANNELS 6 Xposition Yposition Zposition Zrotation Yrotation Xrotation
											JOINT LeftHandRing3
											{
												OFFSET 0.000000 0.000000 3.654984
												CHANNELS 6 Xposition Yposition Zposition Zrotation Yrotation Xrotation
												JOINT LeftHandRing4
												{
													OFFSET 0.000000 0.000000 2.741241
													CHANNELS 6 Xposition Yposition Zposition Zrotation Yrotation Xrotation
													End Site
													{
														OFFSET 0.000000 0.000000 0.100006
													}
												}
											}
										}
									}
									JOINT LeftHandPinky1
									{
										OFFSET 0.173504 4.467199 7.976990
										CHANNELS 6 Xposition Yposition Zposition Zrotation Yrotation Xrotation
										JOINT LeftHandPinky2
										{
											OFFSET 0.000000 0.000002 3.350403
											CHANNELS 6 Xposition Yposition Zposition Zrotation Yrotation Xrotation
											JOINT LeftHandPinky3
											{
												OFFSET 0.000000 0.000000 2.842758
												CHANNELS 6 Xposition Yposition Zposition Zrotation Yrotation Xrotation
												JOINT LeftHandPinky4
												{
													OFFSET 0.000000 0.000000 2.639709
													CHANNELS 6 Xposition Yposition Zposition Zrotation Yrotation Xrotation
													End Site
													{
														OFFSET 0.000000 0.000000 0.100006
													}
												}
											}
										}
									}
									JOINT LeftForeArmEnd
									{
										OFFSET 0.000000 0.000000 0.000000
										CHANNELS 6 Xposition Yposition Zposition Zrotation Yrotation Xrotation
										End Site
										{
											OFFSET 0.000000 0.000000 0.100006
										}
									}
								}
								JOINT LeftArmEnd
								{
									OFFSET 0.000000 0.000000 0.000000
									CHANNELS 6 Xposition Yposition Zposition Zrotation Yrotation Xrotation
									End Site
									{
										OFFSET 0.000000 0.000000 0.100006
									}
								}
							}
						}
					}
				}
			}
		}
	}
	JOINT RightUpLeg
	{
		OFFSET -11.289944 0.000000 0.000000
		CHANNELS 6 Xposition Yposition Zposition Zrotation Yrotation Xrotation
		JOINT RightLeg
		{
			OFFSET 0.000000 -0.000002 -38.200321
			CHANNELS 6 Xposition Yposition Zposition Zrotation Yrotation Xrotation
			JOINT RightFoot
			{
				OFFSET 0.000000 -0.000004 -39.900856
				CHANNELS 6 Xposition Yposition Zposition Zrotation Yrotation Xrotation
				JOINT RightToeBase
				{
					OFFSET 0.000000 -15.261639 0.000002
					CHANNELS 6 Xposition Yposition Zposition Zrotation Yrotation Xrotation
					JOINT RightToeBaseEnd
					{
						OFFSET 0.000000 -7.370708 0.000000
						CHANNELS 6 Xposition Yposition Zposition Zrotation Yrotation Xrotation
						End Site
						{
							OFFSET 0.000000 0.000000 0.100000
						}
					}
				}
				JOINT RightLegEnd
				{
					OFFSET 0.000000 0.000000 0.000000
					CHANNELS 6 Xposition Yposition Zposition Zrotation Yrotation Xrotation
					End Site
					{
						OFFSET 0.000000 0.000000 0.100000
					}
				}
			}
			JOINT RightUpLegEnd
			{
				OFFSET 0.000000 0.000000 0.000000
				CHANNELS 6 Xposition Yposition Zposition Zrotation Yrotation Xrotation
				End Site
				{
					OFFSET 0.000000 0.000000 0.099998
				}
			}
		}
	}
	JOINT LeftUpLeg
	{
		OFFSET 11.315662 0.000000 0.000000
		CHANNELS 6 Xposition Yposition Zposition Zrotation Yrotation Xrotation
		JOINT LeftLeg
		{
			OFFSET 0.000000 -0.000002 -38.200321
			CHANNELS 6 Xposition Yposition Zposition Zrotation Yrotation Xrotation
			JOINT LeftFoot
			{
				OFFSET 0.000000 -0.000004 -39.900856
				CHANNELS 6 Xposition Yposition Zposition Zrotation Yrotation Xrotation
				JOINT LeftToeBase
				{
					OFFSET 0.000000 -15.261639 0.000002
					CHANNELS 6 Xposition Yposition Zposition Zrotation Yrotation Xrotation
					JOINT LeftToeBaseEnd
					{
						OFFSET 0.000000 -7.539997 0.000000
						CHANNELS 6 Xposition Yposition Zposition Zrotation Yrotation Xrotation
						End Site
						{
							OFFSET 0.000000 0.000000 0.100000
						}
					}
				}
				JOINT LeftLegEnd
				{
					OFFSET 0.000000 0.000000 0.000000
					CHANNELS 6 Xposition Yposition Zposition Zrotation Yrotation Xrotation
					End Site
					{
						OFFSET 0.000000 0.000000 0.100000
					}
				}
			}
			JOINT LeftUpLegEnd
			{
				OFFSET 0.000000 0.000000 0.000000
				CHANNELS 6 Xposition Yposition Zposition Zrotation Yrotation Xrotation
				End Site
				{
					OFFSET 0.000000 0.000000 0.099998
				}
			}
		}
	}
}
MOTION
Frames: 2
Frame Time: 0.016667
4.630836 -12.880472 79.487503 27.072121 3.441978 0.910358 0.000004 2.080105 8.814235 -0.391758 -2.814086 14.754597 -0.000001 -0.000005 8.844150 0.017775 -0.986934 13.808200 -0.000004 0.000002 11.682268 3.089981 0.192453 9.905898 0.000001 -0.000015 11.746716 1.776024 1.563868 2.196171 0.000001 -0.000005 17.658260 2.122060 6.137567 6.211887 0.000005 0.000002 5.101514 -4.757805 4.766175 -9.387664 0.000001 -0.000003 5.101556 3.847645 -2.185226 -16.967472 -0.000009 0.000004 11.655091 0.000003 0.000000 -0.000001 -2.625399 -0.000004 11.175199 13.279978 -79.624262 -0.244913 -0.000013 0.000004 10.434704 -70.023810 -41.637270 68.389981 -0.000003 -0.000004 29.628412 13.838073 0.586522 47.972868 0.000002 0.000006 22.857630 30.657130 17.947802 -21.385901 -2.867312 -2.944289 3.959553 32.415955 -13.591532 57.445634 -0.000005 -0.000003 3.350421 -4.708398 4.020493 -9.020762 -0.000003 -0.000004 3.756518 -3.201709 2.871501 -6.226821 -0.000005 0.000006 3.147324 0.000003 0.000000 -0.000000 -0.086758 -2.345276 10.030899 -6.194518 12.275417 -9.249839 -0.000002 0.000005 4.061132 0.577808 0.055860 0.000453 0.000007 -0.000000 3.248884 0.073127 -0.031133 0.006299 0.000005 -0.000001 2.639694 -0.000001 0.000000 0.000001 0.104103 -0.006766 9.502960 -1.362891 11.307910 -11.420482 -0.000002 0.000009 4.568719 0.552336 -0.000024 0.000042 0.000003 0.000004 3.654984 0.044556 -0.000013 -0.001387 0.000004 0.000001 2.741257 -0.000001 0.000000 0.000000 0.086755 2.267453 8.921738 5.944132 9.978602 -15.441027 -0.000005 0.000001 4.061092 -1.051929 0.000001 -0.000090 0.000006 0.000005 3.654970 -0.040323 0.000003 0.001861 0.000005 -0.000001 2.741259 0.000000 0.000001 -0.000002 -0.173509 4.467205 7.976979 12.806712 9.320264 -21.987304 0.000002 -0.000005 3.350430 -2.023464 -0.095656 0.017985 0.000001 -0.000001 2.842767 -0.019323 0.051738 0.009867 -0.000001 -0.000001 2.639740 -0.000001 0.000000 0.000000 -0.000007 0.000004 -0.000015 -0.000000 -0.000000 -0.000001 -0.000006 -0.000002 0.000030 0.000000 -0.000001 -0.000000 2.625404 -0.000007 11.175197 -10.892494 74.183170 -0.670816 0.000017 -0.000008 10.813638 69.562895 27.988380 69.172153 -0.000000 -0.000018 28.724785 -3.531928 -1.149353 64.347875 0.644382 0.328878 25.716164 -11.168730 -29.364561 -32.192054 2.867309 -2.944291 3.959581 -32.691447 12.809243 58.820462 -0.000001 0.000007 3.350400 3.067598 -2.763461 -5.974312 -0.000001 0.000002 3.756515 2.099461 -1.953152 -4.132419 -0.000000 -0.000004 3.100004 0.000001 0.000000 0.000003 0.086741 -2.345277 10.030928 -11.262338 -15.944612 -9.205162 0.000007 0.000003 4.061111 0.715100 0.000014 -0.000391 0.000001 0.000001 3.248863 0.201814 -0.000003 0.001695 -0.000005 0.000001 2.639708 -0.000000 -0.000003 -0.000000 -0.104109 -0.006763 9.502977 -5.595589 -12.867645 -13.841750 0.000001 0.000000 4.568743 0.769334 0.145430 0.001781 0.000001 0.000000 3.654968 0.231463 -0.080740 -0.004454 0.000001 -0.000003 2.741226 0.000001 -0.000000 -0.000000 -0.086758 2.267452 8.921742 3.213978 -4.583962 -18.896439 0.000000 0.000002 4.061126 -1.225909 0.000018 0.000162 0.000002 -0.000004 3.654987 -0.363363 0.000000 0.012633 0.000001 0.000004 2.741271 0.000000 -0.000001 -0.000000 0.173500 4.467195 7.977009 12.398511 6.816413 -21.754098 -0.000000 0.000005 3.350397 -1.994366 1.314035 0.255533 0.000001 -0.000008 2.842740 0.008789 1.314033 0.255599 0.000000 -0.000000 2.639693 -0.000002 -0.000001 0.000002 -0.000008 -0.000004 0.000047 -0.000001 0.000000 -0.000001 0.000002 -0.000003 0.000014 -0.000004 -0.000000 0.000003 -11.289944 0.000000 0.000000 -16.359994 3.653837 -24.748931 -0.000001 0.000002 -38.200321 -0.194489 0.253356 52.487156 0.000002 -0.000006 -39.900864 -13.048393 -6.503515 3.845726 -0.000000 -15.261635 -0.000001 0.562489 -1.622115 -28.471597 0.000000 -7.370708 -0.000000 -0.000000 -0.000000 0.000000 0.000000 -0.000000 0.000000 0.000000 0.000000 0.000002 -0.000000 -0.000002 0.000000 -0.000000 0.000000 0.000001 11.315664 0.000004 -0.000003 11.046294 -11.305693 -34.030120 0.000004 0.000004 -38.200321 0.500852 -0.745622 56.132424 0.000000 -0.000003 -39.900856 3.624262 4.060007 5.703775 -0.000005 -15.261636 0.000005 -0.572767 0.099774 -29.423499 -0.000000 -7.539991 0.000000 0.000003 0.000001 0.000000 -0.000003 0.000005 0.000000 0.000003 -0.000002 0.000002 0.000002 -0.000004 -0.000001 -0.000001 -0.000001 0.000000 
4.755524 -12.892628 79.550064 27.449719 3.644965 0.810081 -0.000001 2.080105 8.814254 -0.385528 -2.730460 14.672662 0.000001 -0.000008 8.844144 0.050885 -0.900901 13.868354 -0.000003 0.000005 11.682250 3.055804 0.171864 9.967961 -0.000003 -0.000003 11.746713 1.737345 1.510966 2.207401 0.000003 -0.000006 17.658257 2.204997 6.230174 6.242266 0.000003 0.000012 5.101516 -4.718667 4.792500 -9.330840 -0.000007 -0.000007 5.101504 3.847943 -2.112589 -17.119254 -0.000006 0.000003 11.655090 0.000000 0.000001 0.000001 -2.625397 -0.000001 11.175213 12.843754 -80.187671 -0.253104 -0.000012 -0.000004 10.434748 -69.831355 -42.161006 67.552292 -0.000003 -0.000010 29.628397 14.406684 0.633727 49.273958 0.000000 0.000011 22.857624 31.377496 17.724186 -20.875063 -2.867316 -2.944290 3.959586 32.415951 -13.591550 57.445757 0.000002 0.000001 3.350397 -4.708408 4.020470 -9.020946 -0.000001 -0.000006 3.756508 -3.201698 2.871538 -6.226754 -0.000001 0.000004 3.147340 0.000001 -0.000000 -0.000002 -0.086750 -2.345278 10.030928 -6.145037 12.538979 -9.633213 -0.000001 -0.000001 4.061092 0.572295 -0.000018 -0.000101 0.000006 0.000001 3.248893 0.067944 0.000004 0.005904 -0.000005 0.000001 2.639696 -0.000003 0.000001 -0.000001 0.104105 -0.006765 9.502984 -1.293725 11.705351 -11.471263 -0.000007 0.000006 4.568726 0.548425 0.000006 0.000038 0.000005 0.000001 3.654986 0.041218 -0.000000 -0.001280 0.000002 0.000000 2.741242 0.000001 -0.000000 -0.000001 0.086761 2.267452 8.921765 6.100256 10.697726 -14.946926 0.000003 0.000007 4.061133 -1.047760 -0.000045 -0.000083 -0.000004 0.000003 3.654996 -0.037074 0.000019 0.001724 0.000009 0.000003 2.741259 0.000003 0.000002 -0.000001 -0.173505 4.467197 7.977009 13.196404 10.409055 -20.730917 0.000003 -0.000004 3.350396 -2.023316 0.000017 0.014016 0.000001 -0.000001 2.842738 -0.019179 -0.000009 0.009200 -0.000001 -0.000006 2.639709 -0.000001 0.000000 0.000000 -0.000003 -0.000000 0.000014 -0.000001 -0.000000 0.000002 -0.000004 -0.000002 0.000016 -0.000000 0.000000 -0.000001 2.625395 -0.000001 11.175221 -10.696766 74.260023 -0.673393 0.000012 -0.000010 10.813635 69.552875 28.459074 69.080055 -0.000009 -0.000014 28.724771 -3.474558 -1.144347 64.613719 0.644379 0.328876 25.716175 -10.472802 -29.157599 -32.197058 2.867317 -2.944286 3.959582 -32.691416 12.809254 58.820510 0.000002 0.000005 3.350406 3.067613 -2.763464 -5.974357 -0.000001 0.000003 3.756510 2.099456 -1.953183 -4.132414 0.000002 0.000001 3.100009 -0.000001 0.000001 -0.000004 0.086746 -2.345276 10.030924 -11.316653 -16.141267 -8.690155 -0.000003 -0.000000 4.061129 0.718071 0.115403 0.001049 0.000002 -0.000000 3.248899 0.204612 -0.064116 0.001508 0.000000 0.000000 2.639710 -0.000000 0.000001 -0.000000 -0.104102 -0.006761 9.502977 -5.665002 -12.998192 -13.251440 -0.000005 -0.000000 4.568738 0.773132 0.000033 -0.000174 -0.000004 0.000000 3.654976 0.234729 0.000003 -0.004164 -0.000007 0.000002 2.741227 0.000000 0.000001 -0.000001 -0.086755 2.267450 8.921732 3.172555 -4.956371 -18.174959 0.000008 0.000001 4.061093 -1.227727 -0.024323 0.000680 -0.000004 -0.000003 3.654983 -0.368177 0.012835 0.012668 -0.000005 -0.000003 2.741240 -0.000000 -0.000003 -0.000000 0.173501 4.467203 7.977015 12.357984 6.025276 -20.923665 -0.000003 0.000006 3.350423 -1.994795 0.892149 0.173993 -0.000000 -0.000000 2.842767 0.008774 0.895572 0.173919 -0.000000 0.000003 2.639678 0.000000 -0.000001 -0.000001 -0.000004 -0.000000 0.000030 -0.000003 -0.000000 -0.000000 -0.000006 -0.000001 -0.000001 0.000002 0.000001 0.000003 -11.289945 -0.000001 0.000001 -16.481783 3.574617 -24.217505 -0.000000 0.000004 -38.200321 -0.204019 0.261268 52.010453 0.000000 -0.000008 -39.900856 -13.252424 -6.618865 3.937506 -0.000004 -15.261637 -0.000000 0.579166 -1.639288 -28.382376 0.000001 -7.370708 0.000000 -0.000000 0.000000 -0.000000 0.000000 -0.000000 -0.000000 0.000000 0.000000 0.000000 -0.000001 -0.000003 -0.000001 0.000001 0.000001 0.000002 11.315660 0.000001 -0.000001 10.707655 -11.443481 -33.915154 0.000001 -0.000002 -38.200321 0.504749 -0.750485 56.080474 -0.000001 -0.000000 -39.900856 3.586041 3.946141 5.661388 -0.000002 -15.261639 0.000005 -0.531185 0.068128 -29.395584 0.000003 -7.539995 -0.000001 -0.000004 0.000001 0.000000 0.000000 0.000006 0.000000 -0.000001 0.000001 -0.000002 -0.000002 0.000001 0.000001 0.000001 0.000000 -0.000002 
